<?xml version="1.0" encoding="UTF-8" standalone="no"?>
<!DOCTYPE svg PUBLIC "-//W3C//DTD SVG 1.1//EN" "http://www.w3.org/Graphics/SVG/1.1/DTD/svg11.dtd">
<svg width="100%" height="100%" viewBox="0 0 100 13" version="1.1" xmlns="http://www.w3.org/2000/svg" xmlns:xlink="http://www.w3.org/1999/xlink" xml:space="preserve" xmlns:serif="http://www.serif.com/" style="fill-rule:evenodd;clip-rule:evenodd;stroke-linecap:round;stroke-linejoin:round;stroke-miterlimit:1.5;">
    <g id="logo.svg" transform="matrix(0.0102465,0,0,0.00594965,50,6.5)">
        <g transform="matrix(1,0,0,1,-2480.5,-1754)">
            <g transform="matrix(2.19022,0,0,2.19022,-3374.45,-1471.19)">
                <g transform="matrix(11.635,0,0,11.635,-23033.3,-10549.5)">
                    <g>
                        <g transform="matrix(1,0,0,1,2122.64,1021.94)">
                            <text x="0px" y="0px" style="font-family:'Calibri', sans-serif;font-size:50px;fill:rgb(255,208,2);">r</text>
                        </g>
                        <g transform="matrix(1,0,0,1,2139.04,1021.94)">
                            <text x="0px" y="0px" style="font-family:'Calibri', sans-serif;font-size:50px;fill:rgb(255,208,2);">apid</text>
                        </g>
                    </g>
                    <g>
                        <g transform="matrix(1,0,0,1,2122.64,1057.75)">
                            <text x="0px" y="0px" style="font-family:'Calibri', sans-serif;font-size:50px;fill:rgb(12,31,44);">pr</text>
                        </g>
                        <g transform="matrix(1,0,0,1,2165.68,1057.75)">
                            <text x="0px" y="0px" style="font-family:'Calibri', sans-serif;font-size:50px;fill:rgb(12,31,44);">es<tspan x="43.87px " y="0px ">t</tspan></text>
                        </g>
                    </g>
                </g>
                <g transform="matrix(-0.868715,0.886137,-0.886137,-0.868715,7149.85,-51.9145)">
                    <g>
                        <g>
                            <g transform="matrix(1,0,0,1,-407.702,-263.316)">
                                <g transform="matrix(1,0,0,1,-84.339,-200.212)">
                                    <circle cx="3517.34" cy="1660.89" r="130.2" style="fill:white;stroke:rgb(58,95,144);stroke-width:14.26px;"/>
                                </g>
                                <g transform="matrix(1,0,0,1,266.542,60.9131)">
                                    <circle cx="3166.46" cy="1399.77" r="15.949" style="fill:rgb(235,235,235);stroke:rgb(58,95,144);stroke-width:12.1px;"/>
                                </g>
                                <ellipse cx="3432.35" cy="1460.49" rx="3.069" ry="2.915" style="fill:rgb(58,95,144);"/>
                                <g transform="matrix(0.947624,-0.00381215,0.00358034,0.89,426.707,90.7284)">
                                    <path d="M3166.59,1429.75L3183.17,1552.75L3150,1552.75L3166.59,1429.75Z" style="fill:rgb(58,95,144);"/>
                                </g>
                                <g transform="matrix(-0.459741,0.82864,-0.778251,-0.431785,6098.67,-491.308)">
                                    <path d="M3166.59,1429.75L3183.17,1552.75L3150,1552.75L3166.59,1429.75Z" style="fill:rgb(58,95,144);"/>
                                </g>
                                <g transform="matrix(-0.457447,-0.829909,0.779443,-0.42963,3672.07,4757.3)">
                                    <path d="M3166.59,1429.75L3183.17,1552.75L3150,1552.75L3166.59,1429.75Z" style="fill:rgb(58,95,144);"/>
                                </g>
                            </g>
                            <g transform="matrix(1,0,0,1,-407.702,163.054)">
                                <g transform="matrix(1,0,0,1,-84.339,-200.212)">
                                    <circle cx="3517.34" cy="1660.89" r="130.2" style="fill:white;stroke:rgb(58,95,144);stroke-width:14.26px;"/>
                                </g>
                                <g transform="matrix(1,0,0,1,266.542,60.9131)">
                                    <circle cx="3166.46" cy="1399.77" r="15.949" style="fill:rgb(235,235,235);stroke:rgb(58,95,144);stroke-width:12.1px;"/>
                                </g>
                                <ellipse cx="3432.35" cy="1460.49" rx="3.069" ry="2.915" style="fill:rgb(58,95,144);"/>
                                <g transform="matrix(0.947624,-0.00381215,0.00358034,0.89,426.707,90.7284)">
                                    <path d="M3166.59,1429.75L3183.17,1552.75L3150,1552.75L3166.59,1429.75Z" style="fill:rgb(58,95,144);"/>
                                </g>
                                <g transform="matrix(-0.459741,0.82864,-0.778251,-0.431785,6098.67,-491.308)">
                                    <path d="M3166.59,1429.75L3183.17,1552.75L3150,1552.75L3166.59,1429.75Z" style="fill:rgb(58,95,144);"/>
                                </g>
                                <g transform="matrix(-0.457447,-0.829909,0.779443,-0.42963,3672.07,4757.3)">
                                    <path d="M3166.59,1429.75L3183.17,1552.75L3150,1552.75L3166.59,1429.75Z" style="fill:rgb(58,95,144);"/>
                                </g>
                            </g>
                            <g transform="matrix(1,0,0,0.73911,-234.935,316.774)">
                                <rect x="3257.74" y="1367.58" width="4.984" height="208.335" style="fill:white;stroke:rgb(58,95,144);stroke-width:16.21px;"/>
                            </g>
                        </g>
                        <g transform="matrix(1,0,0,1,-407.702,-263.316)">
                            <g transform="matrix(1,0,0,1,-84.339,-200.212)">
                                <circle cx="3517.34" cy="1660.89" r="130.2" style="fill:white;stroke:rgb(58,95,144);stroke-width:14.26px;"/>
                            </g>
                            <g transform="matrix(1,0,0,1,266.542,60.9131)">
                                <circle cx="3166.46" cy="1399.77" r="15.949" style="fill:rgb(235,235,235);stroke:rgb(58,95,144);stroke-width:12.1px;"/>
                            </g>
                            <ellipse cx="3432.35" cy="1460.49" rx="3.069" ry="2.915" style="fill:rgb(58,95,144);"/>
                            <g transform="matrix(0.947624,-0.00381215,0.00358034,0.89,426.707,90.7284)">
                                <path d="M3166.59,1429.75L3183.17,1552.75L3150,1552.75L3166.59,1429.75Z" style="fill:rgb(58,95,144);"/>
                            </g>
                            <g transform="matrix(-0.459741,0.82864,-0.778251,-0.431785,6098.67,-491.308)">
                                <path d="M3166.59,1429.75L3183.17,1552.75L3150,1552.75L3166.59,1429.75Z" style="fill:rgb(58,95,144);"/>
                            </g>
                            <g transform="matrix(-0.457447,-0.829909,0.779443,-0.42963,3672.07,4757.3)">
                                <path d="M3166.59,1429.75L3183.17,1552.75L3150,1552.75L3166.59,1429.75Z" style="fill:rgb(58,95,144);"/>
                            </g>
                        </g>
                        <g transform="matrix(1,0,0,1,-407.702,163.054)">
                            <g transform="matrix(1,0,0,1,-84.339,-200.212)">
                                <circle cx="3517.34" cy="1660.89" r="130.2" style="fill:white;stroke:rgb(120,155,74);stroke-width:14.26px;"/>
                            </g>
                            <g transform="matrix(-0.999987,-0.00519573,0.00519573,-0.999987,6859.12,2937.5)">
                                <g transform="matrix(1,0,0,1,266.542,60.9131)">
                                    <circle cx="3166.46" cy="1399.77" r="15.949" style="fill:rgb(120,155,74);stroke:rgb(120,155,74);stroke-width:12.1px;"/>
                                </g>
                                <ellipse cx="3432.35" cy="1460.49" rx="3.069" ry="2.915" style="fill:rgb(120,155,74);"/>
                                <g transform="matrix(0.947624,-0.00381215,0.00358034,0.89,426.707,90.7284)">
                                    <path d="M3166.59,1429.75L3183.17,1552.75L3150,1552.75L3166.59,1429.75Z" style="fill:rgb(120,155,74);"/>
                                </g>
                                <g transform="matrix(-0.459741,0.82864,-0.778251,-0.431785,6098.67,-491.308)">
                                    <path d="M3166.59,1429.75L3183.17,1552.75L3150,1552.75L3166.59,1429.75Z" style="fill:rgb(120,155,74);"/>
                                </g>
                                <g transform="matrix(-0.457447,-0.829909,0.779443,-0.42963,3672.07,4757.3)">
                                    <path d="M3166.59,1429.75L3183.17,1552.75L3150,1552.75L3166.59,1429.75Z" style="fill:rgb(120,155,74);"/>
                                </g>
                            </g>
                        </g>
                        <g transform="matrix(-0.111889,0.993721,-0.993721,-0.111889,4647.73,-1837.19)">
                            <g transform="matrix(1,0,0,1,-84.339,-200.212)">
                                <circle cx="3517.34" cy="1660.89" r="130.2" style="fill:white;stroke:rgb(120,155,74);stroke-width:14.26px;"/>
                            </g>
                            <g transform="matrix(-0.999987,-0.00519573,0.00519573,-0.999987,6859.12,2937.5)">
                                <g transform="matrix(1,0,0,1,266.542,60.9131)">
                                    <circle cx="3166.46" cy="1399.77" r="15.949" style="fill:rgb(120,155,74);stroke:rgb(120,155,74);stroke-width:12.1px;"/>
                                </g>
                                <ellipse cx="3432.35" cy="1460.49" rx="3.069" ry="2.915" style="fill:rgb(120,155,74);"/>
                                <g transform="matrix(0.947624,-0.00381215,0.00358034,0.89,426.707,90.7284)">
                                    <path d="M3166.59,1429.75L3183.17,1552.75L3150,1552.75L3166.59,1429.75Z" style="fill:rgb(120,155,74);"/>
                                </g>
                                <g transform="matrix(-0.459741,0.82864,-0.778251,-0.431785,6098.67,-491.308)">
                                    <path d="M3166.59,1429.75L3183.17,1552.75L3150,1552.75L3166.59,1429.75Z" style="fill:rgb(120,155,74);"/>
                                </g>
                                <g transform="matrix(-0.457447,-0.829909,0.779443,-0.42963,3672.07,4757.3)">
                                    <path d="M3166.59,1429.75L3183.17,1552.75L3150,1552.75L3166.59,1429.75Z" style="fill:rgb(120,155,74);"/>
                                </g>
                            </g>
                        </g>
                        <g transform="matrix(-0.998089,-0.0617951,0.0617951,-0.998089,6360.03,2868.11)">
                            <g transform="matrix(1,0,0,1,-84.339,-200.212)">
                                <circle cx="3517.34" cy="1660.89" r="130.2" style="fill:white;stroke:rgb(120,155,74);stroke-width:14.26px;"/>
                            </g>
                            <g transform="matrix(-0.999987,-0.00519573,0.00519573,-0.999987,6859.12,2937.5)">
                                <g transform="matrix(1,0,0,1,266.542,60.9131)">
                                    <circle cx="3166.46" cy="1399.77" r="15.949" style="fill:rgb(120,155,74);stroke:rgb(120,155,74);stroke-width:12.1px;"/>
                                </g>
                                <ellipse cx="3432.35" cy="1460.49" rx="3.069" ry="2.915" style="fill:rgb(120,155,74);"/>
                                <g transform="matrix(0.947624,-0.00381215,0.00358034,0.89,426.707,90.7284)">
                                    <path d="M3166.59,1429.75L3183.17,1552.75L3150,1552.75L3166.59,1429.75Z" style="fill:rgb(120,155,74);"/>
                                </g>
                                <g transform="matrix(-0.459741,0.82864,-0.778251,-0.431785,6098.67,-491.308)">
                                    <path d="M3166.59,1429.75L3183.17,1552.75L3150,1552.75L3166.59,1429.75Z" style="fill:rgb(120,155,74);"/>
                                </g>
                                <g transform="matrix(-0.457447,-0.829909,0.779443,-0.42963,3672.07,4757.3)">
                                    <path d="M3166.59,1429.75L3183.17,1552.75L3150,1552.75L3166.59,1429.75Z" style="fill:rgb(120,155,74);"/>
                                </g>
                            </g>
                        </g>
                        <g transform="matrix(0.0115445,-0.999933,0.999933,0.0115445,1739.54,4827.82)">
                            <g transform="matrix(1,0,0,1,-84.339,-200.212)">
                                <circle cx="3517.34" cy="1660.89" r="130.2" style="fill:white;stroke:rgb(120,155,74);stroke-width:14.26px;"/>
                            </g>
                            <g transform="matrix(-0.999987,-0.00519573,0.00519573,-0.999987,6859.12,2937.5)">
                                <g transform="matrix(1,0,0,1,266.542,60.9131)">
                                    <circle cx="3166.46" cy="1399.77" r="15.949" style="fill:rgb(120,155,74);stroke:rgb(120,155,74);stroke-width:12.1px;"/>
                                </g>
                                <ellipse cx="3432.35" cy="1460.49" rx="3.069" ry="2.915" style="fill:rgb(120,155,74);"/>
                                <g transform="matrix(0.947624,-0.00381215,0.00358034,0.89,426.707,90.7284)">
                                    <path d="M3166.59,1429.75L3183.17,1552.75L3150,1552.75L3166.59,1429.75Z" style="fill:rgb(120,155,74);"/>
                                </g>
                                <g transform="matrix(-0.459741,0.82864,-0.778251,-0.431785,6098.67,-491.308)">
                                    <path d="M3166.59,1429.75L3183.17,1552.75L3150,1552.75L3166.59,1429.75Z" style="fill:rgb(120,155,74);"/>
                                </g>
                                <g transform="matrix(-0.457447,-0.829909,0.779443,-0.42963,3672.07,4757.3)">
                                    <path d="M3166.59,1429.75L3183.17,1552.75L3150,1552.75L3166.59,1429.75Z" style="fill:rgb(120,155,74);"/>
                                </g>
                            </g>
                        </g>
                        <g transform="matrix(1,0,0,0.73911,-234.935,316.774)">
                            <rect x="3257.74" y="1367.58" width="4.984" height="208.335" style="fill:white;stroke:rgb(120,155,74);stroke-width:16.21px;"/>
                        </g>
                        <g transform="matrix(-0.00126082,-0.999999,0.73911,-0.000931885,1938.41,4669.05)">
                            <rect x="3257.74" y="1367.58" width="4.984" height="208.335" style="fill:rgb(120,155,74);stroke:rgb(120,155,74);stroke-width:16.21px;"/>
                        </g>
                    </g>
                </g>
            </g>
        </g>
        <g>
        </g>
    </g>
</svg>
